<?xml version="1.0" encoding="UTF-8" standalone="no"?>
<!-- Created with Inkscape (http://www.inkscape.org/) -->

<svg
   width="167.40187mm"
   height="60.518974mm"
   viewBox="0 0 167.40187 60.518974"
   version="1.1"
   id="svg135"
   xml:space="preserve"
   inkscape:version="1.2.2 (b0a8486541, 2022-12-01)"
   sodipodi:docname="logo.svg"
   xmlns:inkscape="http://www.inkscape.org/namespaces/inkscape"
   xmlns:sodipodi="http://sodipodi.sourceforge.net/DTD/sodipodi-0.dtd"
   xmlns="http://www.w3.org/2000/svg"
   xmlns:svg="http://www.w3.org/2000/svg"><sodipodi:namedview
     id="namedview137"
     pagecolor="#505050"
     bordercolor="#ffffff"
     borderopacity="1"
     inkscape:showpageshadow="0"
     inkscape:pageopacity="0"
     inkscape:pagecheckerboard="1"
     inkscape:deskcolor="#505050"
     inkscape:document-units="mm"
     showgrid="false"
     inkscape:zoom="1.5124747"
     inkscape:cx="339.17922"
     inkscape:cy="110.08448"
     inkscape:window-width="1920"
     inkscape:window-height="1012"
     inkscape:window-x="0"
     inkscape:window-y="0"
     inkscape:window-maximized="1"
     inkscape:current-layer="layer1" /><defs
     id="defs132" /><g
     inkscape:label="Layer 1"
     inkscape:groupmode="layer"
     id="layer1"
     transform="translate(8.6276e-8,-0.01550428)"><g
       transform="matrix(0.50830529,0,0,0.50830529,83.700937,30.274986)"
       id="logo-logo">
<g
   paint-order="stroke"
   id="g147">
		<g
   transform="scale(1.7333333)"
   id="g145">
<path
   style="opacity:1;fill:#ff0c0c;fill-rule:nonzero;stroke:none;stroke-width:1;stroke-linecap:butt;stroke-linejoin:miter;stroke-miterlimit:4;stroke-dasharray:none;stroke-dashoffset:0"
   paint-order="stroke"
   transform="translate(-150,-149.99998)"
   d="m 245,157.23761 c -29.66241,-12.51386 -72.534,-17.84387 -72.534,-17.84387 l -18.57373,-19.31146 c -32.47809,-8.96051 -74.121457,-1.54493 -74.121457,-1.54493 l -14.213257,14.21326 h -5.407165 c -7.10669,2.9353 -4.789307,14.05878 -4.789307,14.05878 -0.30896,-14.98572 12.513855,-12.66834 12.513855,-12.66834 l 3.803345,1.06421 10.100952,-13.42358 6.507934,0.57934 c 0,0 -4.259887,5.92395 -7.079406,15.51075 l 3.005371,0.84094 c 2.667297,-9.9809 6.449402,-15.92682 6.449402,-15.92682 l 6.102417,0.54071 c -1.582337,8.40283 -1.699829,15.18194 -1.632569,18.44153 l 0.04901,1.68103 c 17.002385,3.26843 72.418155,23.44421 72.418155,23.44421 -29.04456,-15.1402 -52.4812,-23.75683 -52.4812,-23.75683 l 47.38299,-2.35236 63.26441,15.91272 c -1.74414,-0.85553 -12.34272,-5.3075 -26.4101,-9.30463 C 221.5307,151.97058 245,157.23761 245,157.23761 Z M 101.43829,141.94287 c 0,0 -0.92694,-10.19647 0.46357,-20.16119 0,0 28.15612,-3.36017 50.86645,-0.57935 l 16.22162,17.83203 c 0,0 -35.68762,-0.68341 -67.55164,2.90851 z m 61.93817,-5.42029 c -0.0267,0 -0.0849,-0.0222 -0.17169,-0.0642 -13.7879,-6.67443 -28.96612,-9.97747 -44.23382,-11.22387 L 104.104,124.02075 c 4.3686,-0.44562 15.67463,-1.45794 28.16687,-1.45794 7.14783,0 13.63318,0.32824 19.29462,0.97625 z m -7.25457,39.60053 c -0.92383,-0.58814 -2.01746,-0.93353 -3.19373,-0.93353 -3.29217,0 -5.961,2.66882 -5.961,5.96099 0,1.17633 0.3454,2.2699 0.93354,3.19373 -1.66169,-1.05786 -2.76716,-2.91156 -2.76716,-5.02734 0,-3.29218 2.66877,-5.961 5.96094,-5.961 2.11585,0 3.96955,1.10553 5.02741,2.76715 z m 12.59112,-1.85382 c -0.92389,-0.5882 -2.01745,-0.9336 -3.19378,-0.9336 -3.29218,0 -5.961,2.66883 -5.961,5.96094 0,1.17639 0.3454,2.26996 0.93359,3.19379 -1.66168,-1.05786 -2.76721,-2.91162 -2.76721,-5.02741 0,-3.29211 2.66882,-5.96093 5.961,-5.96093 2.11578,0 3.96954,1.10552 5.0274,2.76721 z m 65.62348,-11.49658 c -0.41748,-0.24585 -0.87549,-0.38257 -1.35627,-0.38257 -1.94451,0 -3.52087,2.22113 -3.52087,4.96112 0,1.28387 0.34906,2.45001 0.91693,3.33093 -1.27112,-0.74841 -2.16467,-2.51611 -2.16467,-4.57867 0,-2.73993 1.57635,-4.96112 3.52087,-4.96112 1.03339,-1e-5 1.9599,0.63122 2.60401,1.63031 z m 7.18646,-0.78498 c -0.35059,-0.19006 -0.72785,-0.30523 -1.12592,-0.30523 -1.73748,0 -3.14605,1.98461 -3.14605,4.4328 0,1.1054 0.2976,2.10357 0.77246,2.87994 -1.17951,-0.63947 -2.02021,-2.24036 -2.02021,-4.12769 0,-2.44818 1.40857,-4.4328 3.14606,-4.4328 0.953,0 1.79669,0.60981 2.37366,1.55298 z M 64.380737,138.81891 c 42.117183,8.50061 80.691773,30.17633 80.691773,30.17633 z M 175.40137,174.4635 c 16.28607,-2.63342 33.51831,-4.63806 49.7464,-7.57025 -7.96564,2.75061 -16.29523,4.28876 -24.61054,5.52679 -8.33423,1.14496 -16.71588,1.97327 -25.13586,2.04346 z m 0,3.20068 c 16.28607,-2.63336 33.51831,-4.63793 49.7464,-7.57019 -7.96564,2.75061 -16.29523,4.28876 -24.61054,5.52674 -8.33423,1.14496 -16.71588,1.97333 -25.13586,2.04345 z m 0,3.20075 c 16.28607,-2.63336 33.51831,-4.638 49.7464,-7.57019 -7.96564,2.75061 -16.29523,4.28882 -24.61054,5.52673 -8.33423,1.14496 -16.71588,1.97333 -25.13586,2.04346 z m 0,3.20068 c 16.28607,-2.6333 33.51831,-4.63794 49.7464,-7.57013 -7.96564,2.75061 -16.29523,4.28876 -24.61054,5.52674 -8.33423,1.14496 -16.71588,1.97326 -25.13586,2.04339 z"
   stroke-linecap="round"
   id="path143" />
</g>
</g>
</g></g></svg>
