<?xml version="1.0" encoding="UTF-8" standalone="no" ?>
<!DOCTYPE svg PUBLIC "-//W3C//DTD SVG 1.1//EN" "http://www.w3.org/Graphics/SVG/1.1/DTD/svg11.dtd">
<svg xmlns="http://www.w3.org/2000/svg" xmlns:xlink="http://www.w3.org/1999/xlink" version="1.1" width="1280" height="1024" viewBox="0 0 1280 1024" xml:space="preserve">
<desc>Created with Fabric.js 5.3.0</desc>
<defs>
</defs>
<g transform="matrix(1.9211538461538462 0 0 1.9211538461538462 629.2602796973756 417.94680530879)" id="logo-logo"  >
<g style=""  paint-order="stroke"   >
		<g transform="matrix(1.7333333333333334 0 0 1.7333333333333334 0 0)"  >
<path style="stroke: none; stroke-width: 1; stroke-dasharray: none; stroke-linecap: butt; stroke-dashoffset: 0; stroke-linejoin: miter; stroke-miterlimit: 4; fill: rgb(255,12,12); fill-rule: nonzero; opacity: 1;"  paint-order="stroke"  transform=" translate(-149.99999946693652, -149.99998437889877)" d="M 245 157.2376099 C 215.3375854 144.7237549 172.4660034 139.3937378 172.4660034 139.3937378 L 153.8922729 120.0822754 C 121.4141845 111.1217651 79.7708129 118.5373535 79.7708129 118.5373535 L 65.5575561 132.7506103 L 60.1503906 132.7506103 C 53.0437011 135.685913 55.361084000000005 146.8093872 55.361084000000005 146.8093872 C 55.052124000000006 131.8236694 67.87493900000001 134.1410522 67.87493900000001 134.1410522 L 71.67828370000001 135.2052612 L 81.77923580000001 121.78167719999999 L 88.28717040000001 122.3610229 C 88.28717040000001 122.3610229 84.0272827 128.2849731 81.20776370000002 137.8717651 L 84.21313480000002 138.7127075 C 86.88043220000002 128.7318115 90.66253670000002 122.78588869999999 90.66253670000002 122.78588869999999 L 96.76495370000002 123.32659909999998 C 95.18261730000002 131.72943109999997 95.06512460000002 138.50854489999998 95.13238530000002 141.76812739999997 L 95.18139650000002 143.44915769999997 C 112.18377690000003 146.71759029999998 167.5995484 166.89337159999997 167.5995484 166.89337159999997 C 138.5549927 151.75317379999996 115.1183472 143.13653569999997 115.1183472 143.13653569999997 L 162.5013428 140.78417969999998 L 225.7657471 156.69689939999998 C 224.0216065 155.84136959999998 213.4230347 151.38940429999997 199.3556519 147.39227289999997 C 221.5307007 151.9705811 245 157.2376099 245 157.2376099 z M 101.4382935 141.9428711 C 101.4382935 141.9428711 100.5113526 131.7463989 101.9018555 121.78167729999998 C 101.9018555 121.78167729999998 130.0579834 118.42150879999998 152.7683106 121.20233159999998 L 168.9899293 139.03436279999997 C 168.9899292 139.0343628 133.3023071 138.3509521 101.4382935 141.9428711 z M 163.3764648 136.522583 C 163.3497924 136.522583 163.2915649 136.5004272 163.2047729 136.458374 C 149.41687009999998 129.78393549999998 134.2386474 126.48089599999999 118.9709472 125.23449699999999 L 104.1040038 124.0207519 C 108.4725951 123.5751342 119.7786254 122.56280509999999 132.2708739 122.56280509999999 C 139.418701 122.56280509999999 145.9040526 122.89105219999999 151.5654906 123.53906239999999 L 163.3764648 136.522583 z M 156.1218872 176.1231079 C 155.1980591 175.5349731 154.1044311 175.1895752 152.9281616 175.1895752 C 149.6359863 175.1895752 146.96716310000002 177.8583984 146.96716310000002 181.1505737 C 146.96716310000002 182.3269043 147.31256100000002 183.4204712 147.90069580000002 184.3442993 C 146.23901370000002 183.28643799999998 145.13354490000003 181.4327392 145.13354490000003 179.31695549999998 C 145.13354490000003 176.02478019999998 147.80230710000004 173.355957 151.09448240000003 173.355957 C 153.2103271 173.355957 155.0640259 174.4614868 156.1218872 176.1231079 z M 168.7130127 174.2692871 C 167.78912350000002 173.68109130000002 166.6955566 173.3356933 165.5192261 173.3356933 C 162.2270508 173.3356933 159.5582276 176.0045165 159.5582276 179.2966308 C 159.5582276 180.4730224 159.9036255 181.5665893 160.49182140000002 182.4904174 C 158.8301393 181.4325561 157.7246095 179.57879630000002 157.7246095 177.4630126 C 157.7246095 174.1708983 160.3934327 171.5020751 163.685608 171.5020751 C 165.8013916 171.5020752 167.6551514 172.607605 168.7130127 174.2692871 z M 234.3364868 162.7727051 C 233.91900629999998 162.52685549999998 233.4609985 162.3901367 232.98022459999999 162.3901367 C 231.03570559999997 162.3901367 229.4593506 164.6112671 229.4593506 167.3512573 C 229.4593506 168.63513179999998 229.8084107 169.8012695 230.3762818 170.6821899 C 229.1051636 169.9337768 228.2116089 168.1660766 228.2116089 166.1035156 C 228.2116089 163.3635864 229.7879639 161.14239500000002 231.73248289999998 161.14239500000002 C 232.7658691 161.142395 233.6923828 161.7736206 234.3364868 162.7727051 z M 241.5229492 161.9877319 C 241.1723633 161.7976684 240.795105 161.6824951 240.3970337 161.6824951 C 238.6595459 161.6824951 237.2509766 163.66711420000001 237.2509766 166.1152954 C 237.2509766 167.2207031 237.548584 168.2188721 238.0234375 168.99523920000001 C 236.8439331 168.3557739 236.0032349 166.75488280000002 236.0032349 164.8675537 C 236.0032349 162.4193725 237.4118042 160.4347534 239.149292 160.4347534 C 240.1022949 160.4347534 240.9459839 161.0445557 241.5229492 161.9877319 z M 64.3807373 138.8189087 C 106.4979248 147.3195191 145.0725098 168.9952393 145.0725098 168.9952393 L 64.3807373 138.8189087 z M 175.4013672 174.463501 C 191.687439 171.8300781 208.91967770000002 169.82543950000002 225.1477661 166.8932495 C 217.1821289 169.6438599 208.852539 171.1820068 200.53723140000002 172.4200439 C 192.2030029 173.5650024 183.8213501 174.3933105 175.4013672 174.463501 z M 175.4013672 177.6641846 C 191.687439 175.0308228 208.91967770000002 173.0262451 225.1477661 170.0939942 C 217.1821289 172.8446046 208.852539 174.38275149999998 200.53723140000002 175.6207276 C 192.2030029 176.765686 183.8213501 177.5940552 175.4013672 177.6641846 z M 175.4013672 180.8649292 C 191.687439 178.23156740000002 208.91967770000002 176.2269287 225.1477661 173.2947388 C 217.1821289 176.0453492 208.852539 177.5835572 200.53723140000002 178.82147220000002 C 192.2030029 179.9664307 183.8213501 180.7947998 175.4013672 180.8649292 z M 175.4013672 184.0656128 C 191.687439 181.432312 208.91967770000002 179.4276733 225.1477661 176.49548339999998 C 217.1821289 179.24609379999998 208.852539 180.7842407 200.53723140000002 182.0222168 C 192.2030029 183.1671753 183.8213501 183.9954834 175.4013672 184.0656128 z" stroke-linecap="round" />
</g>
</g>
</g>
</svg>
